<svg width="773" height="2454" viewBox="0 0 773 2454" fill="none" xmlns="http://www.w3.org/2000/svg">
<path d="M767.587 2400.85L762.641 2402.94L760.239 2399.47L756.519 2398.85L750.542 2401.7L750.097 2400.09L745.889 2388.67L743.199 2383.59L741.831 2381.99L739.429 2380.38L738.837 2381.99L738.11 2382.29L736.929 2382.14L736.489 2381.99L732.622 2383.59L731.099 2383.29L727.377 2380.28L720.62 2377.89L720.029 2376.96L720.469 2375.35L719.293 2373.12L717.92 2372.19L715.963 2371.73L713.261 2368.41L712.969 2367.16L713.56 2365.87L716.841 2365.25L719.541 2369.04L719.693 2369.34L721.011 2369.65L721.739 2369.03L722.031 2366.79L722.769 2366.48L723.95 2366.64L725.61 2368.72L726.489 2368.87L727.52 2367.79L728.891 2368.09L729.629 2366.79L731.152 2366.48L732.329 2369.03L732.92 2369.33L733.652 2367.72L734.819 2368.03L736.489 2369.64L739.477 2369.02L741.001 2369.32L742.369 2370.62H743.891L744.77 2369.85L745.497 2368.39L746.381 2367.46H747.261L748.291 2363.51L746.04 2360.51L743.94 2358.59L743.061 2358.43L739.629 2360.96L738.11 2361.27L737.822 2360.64L737.529 2357.63L736.499 2355.71L733.95 2353.33L733.071 2353.17H732.779L731.9 2354.1L730.381 2354.43L728.711 2353.17L726.601 2352.86L724.79 2352.08H721.509L718.52 2353.33L713.721 2349.7L714.6 2349.08L717.149 2349.39L718.033 2349.08L719.209 2347.16L719.36 2344.15L720.727 2341.14L723.721 2337.5L725.83 2336.04L725.087 2334.45L724.36 2333.82L723.043 2333.67L721.86 2334.76L720.981 2336.83L718.579 2337.29L713.491 2336.99L712.613 2338.24L713.051 2339.53L710.498 2339.22L707.949 2339.84L705.84 2338.08L706.719 2334.59L704.321 2328.26L703.443 2322.08L701.48 2316.69L698.931 2315.08L698.051 2313.47L696.88 2306.83L696.001 2304.6L695.708 2300.14L696.001 2299.35L697.031 2298.73L696.88 2297.96L697.319 2297.02L692.08 2290.85L689.091 2282.29L687.569 2276.74L684.439 2268.48L683.701 2267.56L682.823 2263.45L683.261 2262.83L682.231 2261.07L679.091 2262L678.208 2261.85L677.031 2258.06L673.453 2255.21L671.641 2254.9L671.05 2253.29L671.489 2251.84L673.453 2250.07L673.74 2247.22L673.253 2245.46L673.291 2245.45L673.008 2243.13L670.02 2235.5L668.36 2231.87L667.193 2230.26L665.518 2229.32L665.81 2227.4L664.629 2222.94L662.959 2219.14L660.561 2215.35L659.38 2215.05L650.069 2197.3L648.702 2196.36L644.342 2196.67L642.823 2194.13L641.299 2192.52L635.182 2188.42L633.369 2188.11L632.339 2189.72L630.533 2188.11L625.288 2187.49L624.409 2186.4L622.452 2182.6L622.3 2180.68L624.112 2177.83L623.52 2173.89L625.333 2170.57L626.06 2170.1L626.212 2169.01L625.918 2168.54L624.888 2168.85L623.228 2171.39L622.5 2171.7L621.622 2171.08L620.889 2167.29L620.298 2166.04L619.713 2165.42V2162.88L618.682 2158.26L615.992 2152.71L613.74 2151.76L612.569 2150.52L611.392 2147.52H609.869L609.142 2146.43L610.02 2144.19L611.392 2142.94L612.91 2142.48L613.789 2142.62L615.6 2146.26L616.338 2146.09L616.929 2145.31L616.338 2142.93H617.852L617.998 2142.3L617.71 2142.15L615.6 2140.54L610.953 2140.7L610.22 2140.38L610.069 2139.14L613.502 2134.37L613.94 2131.83L613.789 2127.74L611.24 2126.81L610.65 2134.12L609.77 2133.49V2127.32V2126.44L608.892 2119.13L606.783 2114.03L604.972 2105.16L603.159 2099.76L604.038 2098.15L605.22 2098.93L606.099 2098.78L606.69 2096.55L608.799 2094.01L607.432 2091.47L607.72 2088.93L606.993 2087.99H606.548L605.669 2092.09L605.23 2093.03L604.35 2095.26L602.833 2096.86H601.173L599.99 2096.24L599.258 2089.6L595.982 2082.28L594.952 2078.49V2072.78L596.27 2071.17L601.069 2069.93L603.619 2067.08L603.179 2066.77L602.149 2067.08L598.722 2069L597.052 2069.31L595.879 2067.7H595.288L593.77 2070.55L593.043 2070.24L592.012 2066.77L589.762 2063.76L588.589 2060.44L588.882 2057.28L588.443 2054.41L585.889 2049.8L586.329 2046.02L586.622 2044.93H586.909L586.758 2042.23L581.958 2043.68L581.519 2041.76L581.812 2040.51L581.373 2036.72L582.101 2033.24L583.131 2033.09L583.569 2035.48L584.302 2035.17L585.669 2032.32L586.548 2032.17L589.39 2033.1L591.05 2031.85L591.929 2029.46L593.453 2028.52L593.74 2026.61L593.008 2025.83L589.142 2029.46L586.299 2028.37L584.199 2030.76L583.169 2031.07L581.061 2029.82L579.693 2024.42L578.018 2022.04L577.432 2020.11L577.721 2017.72L580.562 2017.41L585.069 2013.1L584.038 2012.32L580.762 2014.71L580.469 2014.86H578.218L576.558 2014.23L574.601 2012L571.319 2005.67L567.111 1992.33L564.122 1990.09L563.682 1985.01L562.652 1981.84L563.531 1979.3L563.682 1978.68L565.641 1976.14H566.812L567.691 1976.77L569.942 1975.16H570.821L573.663 1985.63L577.721 1989.11L577.872 1990.2L577.139 1990.36L575.621 1989.74L574.888 1989.88L574.302 1990.98L574.888 1992.9L576.699 1993.52L578.663 1992.9L580.182 1991.44L581.851 1991.13L581.412 1988.12L576.319 1984.02L575.728 1982.78L577.691 1982.62L578.569 1981.54L577.833 1980.24L576.309 1979.61L574.639 1978.01L574.199 1976.91L575.079 1975.62L577.481 1977.54L577.921 1976.91L576.891 1974.53L577.329 1973.6L577.042 1972.98L574.048 1972.66V1972.35L573.463 1970.9L572.432 1969.81L569.151 1969.5L567.833 1968.57L566.949 1966.33C566.949 1966.33 565.323 1964.33 565.152 1964.12C562.779 1961.19 565.441 1958.64 568.731 1959.15C568.863 1959.17 575.298 1963.13 575.201 1963.04C570.963 1959.21 575.279 1959.7 575.982 1957.53C576.182 1956.92 575.909 1953.99 576.402 1953.72C576.432 1953.7 578.062 1952.79 578.062 1952.79L577.032 1951.18V1950.56L576.002 1950.24L574.629 1952.63L572.378 1953.93L570.572 1954.24L569.981 1953L570.708 1950.61L570.123 1949.36L569.239 1948.43L565.963 1948.59L566.251 1946.2L568.062 1945.11L568.502 1942.1L567.911 1934.32L568.789 1933.23L570.162 1932.61L571.681 1932.76L572.852 1930.38L572.413 1929.75L571.382 1930.06L567.798 1931.67L564.219 1928.5L563.779 1924.39L562.262 1921.69L560.943 1911.84L559.268 1910.08V1908.32L560.943 1904.54L561.529 1898.35L562.701 1896.28L564.811 1892.96L562.998 1890.88L561.338 1891.98L559.972 1892.28L558.653 1891.66L557.623 1889.43L555.518 1878.64L556.402 1872.31L554.439 1868.52L554.151 1866.91L555.182 1864.99L559.693 1865.31L560.572 1864.69L559.693 1863.45L559.401 1863.13L557.588 1862.19L555.479 1861.56L553.228 1863.17L551.422 1863.32L551.271 1861.92L553.819 1855.59L552.642 1852.12L553.228 1848.95L552.941 1844.49L553.379 1842.88L555.049 1842.56L555.489 1841.95L557.012 1835.31L557.739 1834.52L558.922 1834.83L559.073 1835.93L560.879 1834.99L558.922 1832.13L554.561 1831.82L551.128 1828.97L549.762 1830.21L548.882 1829.9L548.589 1829.28L549.771 1827.36H552.022L552.311 1825.29L551.573 1822.28L549.458 1819.74L545.879 1820.04L545.001 1818.12L545.288 1810.18H545.879L546.909 1810.34L549.752 1812.1L551.851 1819.26L553.961 1820.72L555.918 1823.26L556.509 1822.79L552.642 1814.23L553.082 1812.98L565.079 1815.52L566.109 1815.99L567.139 1816.3L567.432 1815.67L565.772 1812.82L562.339 1813.44L560.231 1813.13L557.388 1811.36L553.033 1811.06L552.442 1810.28L556.163 1801.39L556.012 1800.46L553.912 1798.85L552.388 1789L549.248 1788.06L548.809 1786.76L549.981 1783.44L549.693 1781.68L548.521 1780.43L548.961 1775.65L547.149 1771.72L545.982 1767.92L542.403 1761.75L541.812 1761.12H539.703L538.179 1759.21L536.851 1758.89L537.003 1758.27L539.401 1758.11L540.431 1757.33L540.718 1756.39L541.309 1754.16L540.869 1751.93L537.291 1748.3L535.918 1743.52L533.819 1740.2L533.379 1736.73L530.982 1732.63L530.249 1732.16L529.073 1733.92L527.701 1733.15L527.111 1731.75L526.519 1726.51L524.713 1724.75L523.682 1723.3L523.389 1722.84L523.829 1721.59H525.352L527.159 1722.84L528.482 1722.52L530.288 1720.44L533.428 1720.6L534.601 1722.05V1726.97L535.342 1728.9L536.069 1729.37L538.912 1729.21L540.079 1729.68L541.261 1731.08L543.663 1736.16L544.981 1737.1L545.708 1730.15L545.861 1728.85L547.823 1727.09L550.372 1729.79L554.092 1728.18L554.972 1728.8L556.002 1731.03L557.808 1729.79L557.081 1726.62L555.899 1725.02H554.732L550.861 1726.1L547.432 1724.02H546.402L543.999 1725.27L542.329 1727.2L540.231 1726.57H539.048L538.018 1725.28L539.829 1720.82L539.542 1720.04L538.663 1718.96L533.121 1715.63L532.091 1714.17L533.262 1712.88L534.932 1710.97L535.221 1709.68L534.781 1708.89L533.121 1708.27L532.529 1707.19L533.561 1704.8L532.969 1703.04L530.431 1699.25L528.912 1695.15L525.772 1693.23L521.901 1693.55L520.869 1692.92L518.179 1689.76L517.588 1687.84L517.74 1686.9L519.703 1685.96L522.101 1683.42L522.833 1682.64L523.272 1679.94L525.669 1677.39L526.109 1675.79L525.231 1674.86L522.682 1674.23L522.388 1673.3L523.761 1667.75V1665.06L523.912 1663.14L521.949 1656.65L519.839 1652.7L518.472 1650.64L515.191 1646.99L509.22 1640.82L508.341 1639.37L507.75 1636.05L508.922 1632.73L511.173 1631.12L514.45 1632.06L515.631 1631.43L516.51 1629.05L517.242 1628.89L517.091 1625.11L513.663 1623.5L509.942 1619.71L509.058 1617.47L505.782 1610.47L505.342 1608.24L506.71 1606.32L501.91 1595.53L501.32 1592.99L501.173 1589.21L504.45 1585.73L505.972 1583.19L506.261 1581.26L505.231 1578.87L504.791 1577.78L503.912 1571.92L499.84 1560.66L497.003 1555.57L493.57 1551.27L491.461 1546.95L491.021 1545.34L491.748 1541.4L491.31 1539.32L491.163 1535.54L489.048 1531.75L487.882 1526.98L484.888 1522.87L481.173 1519.41L479.991 1517.17L481.173 1513.23L480.728 1510.53L475.342 1506.74L474.312 1505.5L473.282 1498.49L473.57 1496.27L476.12 1493.73L473.2 1490.38L472.99 1490.54L472.111 1489.62L469.713 1489.78L469.122 1488.54L468.531 1488.22L468.38 1487.13L468.228 1486.82L469.112 1483.35L468.082 1482.05L464.65 1480.13L464.21 1479.2L464.503 1478.27L465.821 1477.64L469.401 1478.27L475.231 1474.48L476.412 1472.56V1471.26L475.382 1471.1L470.87 1475.04L470.132 1474.89L469.693 1474.27L470.132 1473.03L472.97 1469.71L472.53 1468.93L472.091 1469.09H471.651L468.37 1472.56L467.34 1476.51L466.612 1475.88L465.431 1470.95L462.882 1468.09L460.782 1467.16L459.903 1465.55L460.05 1464.15L462.012 1462.38L461.861 1460.47L457.652 1450.97L455.841 1448.26L453.731 1445.1L453.292 1442.56L457.652 1435.09L458.531 1433.17L458.243 1430.31L456.432 1426.68L455.992 1423.98V1418.74L454.62 1416.66L450.753 1413.5L448.062 1411.89H447.623L445.811 1411.27L441.451 1411.58L440.08 1410.49L440.964 1409.04L443.512 1407.79L443.664 1406.86L443.81 1401.61L442.291 1393.2L442.442 1390.04L443.472 1389.88L445.572 1390.66L448.121 1392.58H451.402L451.691 1395.12V1396.06L453.208 1397.98L453.653 1400.85L454.532 1402.61L455.708 1403.39L459.923 1402.46L463.79 1402.77L469.468 1404.02L482.35 1410.87L483.722 1412.63V1414.55H483.428L484.611 1418.03L486.128 1416.78L487.012 1413.77L486.422 1404.75L482.99 1401.89L482.262 1399.81L482.111 1398.04L483.922 1393.96L483.771 1393.02L479.903 1390.01L479.02 1387.77V1390.47L477.36 1390L478.243 1392.07L477.798 1393.16L476.92 1394.1L474.668 1394.87L472.271 1395.19L469.722 1394.4L468.692 1390.09L464.63 1387.86L462.672 1387.55L459.24 1388.48H458.951L457.281 1387.55L455.762 1385.01L453.208 1382.78L451.691 1379.31L449.44 1377.7L448.561 1374.07L439.45 1367.22L435.582 1366.91L434.552 1366.29L433.521 1359.95L434.249 1359.64L437.242 1358.55L437.97 1357.77L438.849 1355.69L437.824 1353L436.3 1350.92L431.349 1345.99V1339.97L430.324 1333.63L429.151 1330.16L426.901 1329.22L427.78 1325.43L428.81 1324.19L429.694 1323.1L432.53 1310.91V1309.3L431.349 1306.75L432.232 1303.91L431.5 1301.67L433.16 1302.29L435.27 1304.53L436.94 1305.15L439.191 1303.54L443.062 1302.59L446.784 1302.44L448.741 1303.21L449.771 1300.37L448.741 1299.75L448.009 1299.43L445.46 1298.81H442.179L437.824 1299.75L436.451 1298.45L430.03 1285.11L425.08 1270.83L424.791 1270.38L425.08 1268.92L428.072 1270.54L429.249 1270.84V1270.22L427.14 1267.98L425.47 1267.21H420.231L419.2 1265.75L415.919 1250.55L416.802 1242.62L417.53 1235.66L418.121 1220.09L417.97 1214.38L419 1212.76L420.372 1211.66L422.179 1211.83L423.702 1211.51L425.66 1213.13L427.179 1212.19L429.87 1211.87L430.46 1212.5L433.302 1215.04L434.469 1215.36L436.72 1213.44L439.122 1206.64L440.641 1204.56H441.374L442.404 1204.88L445.089 1208.35L451.51 1215.36L457.78 1219.15L458.663 1220.45L458.37 1220.91L460.47 1220.45L461.651 1219.82L461.5 1218.89L459.693 1216.81L456.558 1214.42L455.972 1213.13L456.558 1211.51L457.442 1210.89L465.231 1212.67L469.44 1213.14L472.13 1214.43H473.653L475.46 1213.5H479.038L480.7 1211.73L477.711 1210.64L475.753 1211.11L474.083 1210.64L471.53 1209.04L467.462 1208.1H463.253L460.851 1208.73H458.848L457.682 1208.1L457.833 1206.19L458.272 1198.55L457.091 1195.54L456.363 1191.24L454.552 1191.71L446.759 1196.33L443.922 1197.26L442.252 1196.64L440.001 1194.72L437.901 1194.41L437.022 1193.79L434.469 1188.39L432.222 1183.31L432.662 1179.2L434.771 1176.98L437.911 1175.36L442.711 1181.55L443.444 1180.45L442.999 1178.53L441.969 1176.6L442.262 1175.82L443.629 1174.89L446.031 1175.66L446.759 1174.89L447.501 1172.5L446.759 1170.58L444.66 1167.1L444.512 1164.56L445.88 1162.95L449.601 1161.19L450.972 1161.49L453.81 1163.1L454.84 1162.95L453.961 1160.41L446.031 1155.95L447.404 1154.71L449.059 1155.01L451.461 1156.3L453.418 1156L457.78 1153.46L462.882 1154.39L463.912 1154.08L469.151 1148.84L470.47 1148.36L471.993 1150.91L472.432 1151.53L473.311 1152.16L473.902 1151.23L473.311 1148.06L473.6 1146.77L480.953 1145.83L484.668 1143.29L486.338 1143.14L490.401 1145.07L491.28 1144.92L490.113 1142.38L488.741 1141.07L484.87 1140.45L483.702 1139.67L484.293 1138.21L487.281 1137.59L488.951 1136.97L489.981 1135.36L489.391 1133.75L483.712 1135.67L482.98 1134.58L483.131 1133.8L484.65 1132.35L489.45 1132.2L490.772 1131.26L491.51 1130.02L491.363 1129.08L490.772 1128.46L489.112 1128.77L487.003 1130.37L484.601 1129.75L482.788 1130.68L479.21 1134.47L476.812 1134.94L474.112 1137.64L473.228 1139.87L471.558 1141.33L470.831 1140.86L470.24 1139.1L469.512 1138.63L468.78 1139.1L468.19 1141.64L466.822 1140.56L464.268 1142.94L463.541 1142.01L463.83 1139.78L462.798 1139L461.768 1138.07L461.622 1136.82L462.213 1134.28L459.371 1127.49C459.371 1127.49 458.941 1125.44 458.932 1125.42C458.932 1125.43 460.308 1124.41 460.753 1123.88C460.08 1124.39 458.38 1119.69 458.482 1118.8C458.692 1116.98 459.742 1115.53 460.943 1114.26L460.651 1113.16L457.96 1113.94L456.592 1113.47L458.262 1110.31L457.378 1109.69L456.061 1109.38L455.03 1107.46V1107.15L454.742 1105.23L455.47 1104.61L456.5 1105.69L457.53 1105.54L457.823 1104.61L455.861 1100.14L455.708 1098.22L457.37 1090.91L457.662 1087.11L454.972 1085.72L453.453 1092.88L453.008 1093.82L451.051 1097.76H450.021L449.581 1096.66L448.702 1095.73L447.53 1096.04L447.242 1096.97L449.049 1105.84L448.761 1107.09H447.242L445.572 1106.15L444.542 1106.46L445.27 1108.07L445.124 1109.99L440.91 1112.06L440.324 1113.15L441.051 1114.25L444.332 1114.39L445.211 1115.34L445.651 1117.41L446.09 1119.49L445.499 1120.73L443.254 1121.36L441.139 1120.42L437.271 1117.57L435.309 1117.41L434.722 1118.5L435.601 1120.11L437.999 1120.73L440.841 1123.59L444.914 1124.52L446.584 1125.45L447.022 1129.08L445.06 1130.85L444.469 1133.08L443.101 1135L441.784 1135.62L440.124 1136.24L438.311 1139.4L431.412 1145.88L429.889 1146.36L429.01 1142.57L425.582 1141.62L424.85 1141L423.331 1136.07L420.342 1139.7L417.789 1140.01L416.622 1140.63L415.099 1143.03L414.66 1144.42L414.22 1146.19L415.89 1150.13L412.169 1158.06L411.584 1162.68L410.211 1166.31L400.9 1178.67L399.24 1178.35L398.951 1176.13L398.664 1174.52L399.694 1172.9L402.97 1172.27L404.151 1171.03L405.03 1166.93L403.512 1161.22L402.33 1160.59L400.66 1160.9L396.154 1164.06L395.562 1162.82L396.29 1159.35L399.571 1153.95L401.09 1149.84L401.241 1149.54L402.12 1143.51V1136.87L402.999 1136.25L406.139 1136.56L408.244 1135.62L408.092 1131.32L409.122 1129.4L416.031 1124.78L417.204 1123.17L416.91 1122.54H414.361L412.111 1124.62L411.382 1125.24L408.981 1126.02L405.552 1128.1L403.741 1127.32L405.992 1114.14L405.7 1111.6L404.381 1107.29L401.251 1099.97L400.66 1094.89L398.849 1094.59L397.53 1093.81L395.719 1099.05L394.991 1098.27L393.81 1096.51L393.082 1090.81L391.901 1088.27L392.204 1086.97L394.45 1085.88L395.182 1084.12L395.772 1080.49L398.464 1076.54L397.872 1074.78L396.842 1075.56L395.964 1074.93L395.811 1073.85L394.294 1077.48L392.481 1078.73L391.3 1078.26L392.179 1075.88V1075.56L392.032 1074.32L391.441 1073.69L391.002 1072.09L392.169 1055.59L391.73 1048.27L393.254 1045.1L393.981 1039.4L395.162 1037.79L396.33 1037.64L397.214 1038.1L397.36 1039.71L397.511 1041.32L401.584 1041.63L406.671 1038.16L412.501 1036.08L414.752 1036.25L417.15 1036.87L422.98 1039.73L428.81 1043.82L431.651 1044.44L435.221 1044.75L434.962 1043.79L434.752 1043.75L434.312 1042.66L432.204 1042.35L428.629 1040.59L422.95 1032.64L422.662 1032.49L420.114 1029.95L416.681 1027.87L414.284 1026.94L412.32 1027.09L409.771 1028.34L407.511 1028.81L403.79 1031.35L400.211 1031.51L398.692 1030.88L395.114 1027.4L390.021 1022.94L388.502 1020.08L388.209 1019.77L385.811 1017.54L384.63 1015.76L384.342 1013.38L387.179 1008.92L384.781 1005.44L384.191 1003.21L383.751 997.349L382.233 991.478L380.421 988.625L379.981 987.013L380.719 984.933L384 982.232L378.761 970.66L377.58 964.946L373.521 957.473L371.261 946.054L371.11 943.508L371.851 940.348L373.521 939.728L379.2 939.42L380.231 938.488L375.87 936.881L375.143 935.948L374.553 934.019L374.704 933.715L374.991 931.796L372.004 924.797L368.283 911.302L368.57 909.69L370.089 907.779L368.771 904.766L367.404 897.757L365.88 896.516L366.031 895.417L367.843 894.176L369.361 893.092L370.534 889.302L367.843 890.914H366.174L363.331 888.994L362.589 885.512L363.18 879.489L362.453 876.007L363.771 871.24L366.613 869.637L367.78 868.387L367.491 867.766L364.504 868.694L363.18 868.548L362.74 869.998L361.223 869.847L360.783 867.308L353.883 860.143L352.701 857.915V856.62L354.66 853.925L355.544 853.143H357.501L358.683 849.983L360.929 847.901L361.223 845.977L360.631 841.357L359.601 835.335L358.723 835.027L359.459 828.384L359.171 827.764L357.36 826.303L356.633 824.701L358.59 822.943L361.584 822.631L363.83 818.161L366.969 815.001L369.371 813.751H372.214L373.883 814.381L375.544 815.621L377.789 820.549L378.971 821.799L382.111 823.103L385.099 829.273L384.371 822.421L383.341 821.34L379.269 819.582L378.531 817.35L378.971 815.9L380.343 813.981L376.471 812.73L373.629 810.81L372.901 809.725L373.629 806.717V803.547L373.483 802.927L373.19 801.994L369.323 795.512L370.641 792.504V790.272L368.093 779.159L368.38 777.709L368.674 777.558L372.54 775.008L374.351 773.396L375.87 770.533L376.901 766.445L377.491 750.879L379.161 744.856V744.285H379.059L379.943 738.575L380.231 736.817L382.78 735.416L385.182 731.932L386.549 731.624L391.349 732.924V732.303L389.102 731.053L384.591 730.74L382.194 734.214L380.382 734.375L378.419 722.799L378.713 721.04L380.67 717.098L381.261 710.769L381.549 707.603L383.072 703.974L384.44 702.524L387.432 701.596L388.311 700.346L388.464 693.492L390.861 688.872L393.111 686.171C393.111 686.171 399.66 684.408 399.679 684.398C408.2 682.097 404.259 662.852 405.114 656.738L405.401 654.657L406.28 652.737L410.152 648.795L411.52 648.165L414.66 645.318L415.392 644.014L416.129 641.157L418.044 637.942L418.082 637.952L418.482 637.103L422.204 635.49L423.874 633.263L425.24 632.95L425.972 631.651L426.12 628.789L425.68 627.192L424.801 626.88L424.952 630.352L424.074 630.811L422.892 623.661L423.482 622.727L424.21 623.5L424.801 625.888L425.68 623.349L428.37 623.04L425.231 620.495L424.64 618.117L427.921 607.322L427.77 604.621L425.372 594.139L422.091 585.738L421.651 583.975L422.379 583.667L425.221 588.756L425.811 590.369L426.691 593.529L427.57 596.689L429.24 599.551L430.411 600.479L431.139 600.01L431.73 599.228L430.06 597.001L428.254 594.769L427.37 592.538V591.238L427.521 589.988L427.37 588.689L426.339 587.6L426.192 586.516L425.754 586.198L426.192 585.416L429.771 585.578L430.499 584.327L429.62 580.692L430.651 579.613L428.4 577.684L427.96 576.756L428.254 575.506L430.211 573.904L431.392 571.671L430.954 570.059L431.681 568.13L431.832 566.059L431.241 565.439L429.142 564.97L428.99 564.35L431.832 562.43L432.56 561.498L432.852 561.19L432.12 559.578L430.944 557.975L428.39 559.578L426.871 559.426L427.022 558.127L432.55 553.814L432.99 552.564L432.701 551.943L430.592 552.876L430.441 551.943L431.174 550.337L433.131 549.716L437.78 545.926L439.45 545.305L439.889 546.913L440.48 547.387L443.912 545.315L446.73 546.243L446.549 546.083L445.964 541.994L444.151 543.293L443.561 539.18L438.761 538.873L437.101 541.412L436.222 541.72L435.631 541.1L435.05 538.873L436.374 534.409L435.631 534.57L433.971 537.261H433.092L433.83 535.181L433.541 533.73L431.584 535.649L429.62 535.342L429.03 535.962L426.192 534.663L425.46 534.97L425.172 533.359L424.44 532.738H424L423.272 533.051L422.682 531.801L422.97 531.18L421.794 530.248L422.521 528.327L424.332 528.176L425.06 527.087L428.629 526.159L428.19 525.539H424.322L423.882 522.379H422.071V519.203L424.181 517.596L424.771 515.213L426.29 513.762L425.851 511.843L427.37 510.085L428.692 509.932L428.839 509.151L428.4 508.062L425.851 508.379H424.332L421.192 511.853L418.79 512.322L414.284 515.335L412.911 517.875L411.881 519.633L410.851 520.097L408.741 519.784L407.711 520.873L406.539 520.717L409.23 516.615H411.192L411.041 515.003L411.481 513.406L415.552 510.231L413.882 509.142L414.171 507.062L413.444 505.449L410.89 504.828L408.79 502.289L405.851 502.621L407.96 498L408.692 496.759L409.284 494.376L413.639 495.158L411.969 493.707L407.614 492.457L407.462 491.529L405.651 490.225V489.448L408.052 488.363L408.639 486.126L412.36 484.514L414.322 481.975L416.129 481.813L416.422 479.743L421.661 478.131H424.361L425.24 475.592L424.952 473.98L422.842 472.889L422.404 472.108L423.58 470.501L427.012 469.558L428.18 468.631L427.15 467.18H426.12L423.57 468.269H423.131L419.259 467.649L414.752 469.099L409.952 471.8L407.701 471.639L406.969 471.019L407.852 469.261L410.25 467.498L406.969 466.731L405.162 468.641L399.479 466.877L400.66 464.651L401.539 463.869L403.79 462.935L404.23 462.315L404.084 460.708L404.23 460.395L406.481 457.856L405.601 457.548L401.09 460.718H398.692L397.809 461.646H394.669L392.424 463.096L391.392 462.945L390.021 461.026L386.881 461.187L381.349 468.661L379.543 468.822L379.391 470.58L381.202 474.682L382.081 476.602L383.751 478.204L383.16 480.432L383.751 482.664L384.781 484.422L387.911 486.815L387.179 487.123L384.039 486.034L380.91 479.865L376.403 463.516L376.251 463.047L375.66 458.745L373.111 453.504L372.379 446.031L372.673 443.33L373.703 443.643L374.143 445.875L375.021 446.49L374.733 447.94L375.324 449.875L379.039 452.874L382.32 453.036L384.284 450.651L387.271 450.964H387.711L388.892 449.713H390.851L393.101 446.861L394.62 447.012L396.73 447.633L398.052 448.722L396.53 450.641L396.822 451.263L399.371 450.641L399.522 451.414L398.932 453.494L399.962 454.276L401.769 452.195L403.444 452.044L406.129 453.284L408.244 453.446L412.452 451.834L413.629 449.913L416.182 449.284L415.299 448.043L413.639 445.342L411.53 445.029L411.241 444.253L411.53 444.091L411.681 443.94H413.2L413.351 442.851L415.509 440.932L415.802 440.922L416.051 440.57L415.762 439.95L414.732 439.789L413.551 440.883L412.672 442.802L410.124 443.11L408.6 444.512L407.721 442.441L407.432 440.209L410.562 439.589L410.411 438.969L409.381 438.812L408.351 437.361L407.624 435.426L405.519 433.199L410.03 427.808L412.432 425.888L411.7 424.276L407.98 427.759H406.32L405.152 429.678H404.561L402.892 427.139L403.18 426.665L404.85 426.826V425.423L405.729 424.495L407.98 423.875L406.661 422.932H403.654L402.921 422.312L404.879 420.393L404.591 419.924L401.749 420.085L401.164 415.772L403.561 414.013L402.042 412.401L404.44 408.919L405.47 407.991L407.58 407.532L408.464 405.769L404.879 407.01L400.231 411.781L399.351 414.322L398.912 420.505L396.374 416.862L395.631 413.072L395.342 413.54L394.762 415.304L395.05 417.536L394.322 421.843L394.914 424.535L394.469 425.468L393.444 425.317L392.414 424.535H391.969L390.601 425.004L387.472 423.714L386.73 421.023L385.851 422.312L386.29 426.415L385.7 427.349H384.669L383.941 426.107L383.654 423.875L381.549 419.104L380.67 419.724L379.791 422.883L378.913 423.206L378.62 425.125L377.892 425.756L373.38 426.683L372.501 427.616L372.35 428.545L373.531 429.796L374.85 430.117L375.143 430.425L375.583 431.046L374.41 432.97L375.001 434.27L376.32 434.738L376.613 435.359L376.021 436.14L373.034 435.818L369.313 434.567L367.789 432.809L366.91 430.425L366.759 427.885L367.789 425.023L367.061 422.483L367.214 419.324L368.244 416.461L368.971 416.314L369.259 416.783L368.674 418.233L368.961 419.324H369.991L371.51 417.403L370.773 415.791L370.919 415.63L371.51 415.161L375.08 414.233L375.231 412.47L357.843 408.842L356.959 409.3L354.85 411.679L353.331 415.983L352.853 418.653L351.823 426.273L349.714 427.885L348.981 434.221L347.95 434.841H345.993L344.323 434.221L342.36 432.296L341.633 430.068L340.9 425.297L339.723 417.662L339.87 415.43L341.393 416.363L342.13 416.67L343.16 419.216L344.039 418.903L345.563 417.604L347.521 413.813L349.181 411.889L348.59 410.638L346.49 412.401L343.654 417.023L343.063 415.411L341.403 413.804L340.964 412.353L339.44 405.662L339.151 402.188L339.591 401.559L340.964 401.867L340.811 399.639V398.857L340.373 397.094L339.049 398.857L338.464 396.156L339.494 394.916L339.343 393.973L340.07 391.746L342.179 391.277L343.849 393.035L345.03 391.795L349.981 391.165L351.651 387.062L354.343 387.375L355.221 389.617L360.021 388.523L358.063 384.224L357.33 385.674L356.891 386.916L354.933 385.514L355.221 383.432L354.049 381.669L354.2 381.049L352.389 380.111L352.834 382.651L351.95 383.593L349.553 382.289L347.589 377.83L344.889 381H343.521L343.083 379.55L345.919 376.541L347.443 373.068L347.291 371.3L349.543 370.836L349.83 370.205L348.464 369.585L347.731 368.965L349.84 367.505L349.249 365.126L348.219 365.747H345.821L344.943 363.515L345.089 361.604L344.361 361.296L343.044 363.377L340.641 363.216L340.05 362.274L339.904 359.895L340.631 356.412L341.661 355.943L342.843 356.251L344.01 357.555L345.04 354.395L346.07 354.083L348.034 355.026L348.913 353.101L349.65 352.784L351.174 353.414L351.613 354.195L352.78 352.584L354.303 350.19L355.821 346.409H357.931L358.81 348.172L360.621 348.328L361.213 349.11L361.364 350.19L363.473 349.569L362.443 347.962L362.589 347.342L371.549 348.27L375.91 352.212L377.721 352.364L376.691 350.453L374.143 347.908L370.421 346.302L368.464 344.377L368.61 342.15L368.019 341.838L365.334 342.458L364.743 341.838L365.334 337.53L366.651 336.749L366.5 335.814L365.324 335.507L362.633 340.587L361.461 341.207H359.791L357.834 344.06L356.803 342.448L356.213 340.221L355.621 337.989L354.591 337.056L352.491 337.369L351.461 338.14L352.643 339.737L350.831 343.678L348.58 339.068L348.293 336.997L348.883 333.988L350.401 331.594L351.574 330.667L353.971 330.974L351.574 328.112V326.872L353.531 323.394L355.631 320.542L358.034 317.371L359.059 317.211L362.053 314.05L364.161 310.109L365.191 306.319L363.874 303.778L360.441 307.877L358.19 306.626L357.599 307.247L357.893 308.497L356.861 310.406L350.099 311.042L349.953 312.487L347.99 311.711L346.031 309.947L347.204 307.408L350.783 305.02L353.034 302.474L353.321 301.854C356.29 295.583 358.713 292.765 363.81 288.212L371.891 280.739L376.691 272.958L379.24 270.096L380.763 269.168L386.154 266.622L388.111 264.703L390.802 260.601L397.222 259.301L399.914 257.382L403.629 253.592L405.299 250.73L406.671 240.878L407.111 239.935L407.404 239.167L411.271 235.846H412.931L417.442 236.935L430.91 238.386L434.63 241.396L436.592 242.016L437.472 241.239L438.502 238.235L439.87 237.297L444.23 235.846L446.481 235.685L463.722 229.194L467.931 228.882L470.772 227.275L474.64 224.109L475.963 223.953L477.77 224.72L480.323 224.1L483.16 225.404L485.123 225.082L489.332 222.542H491.592L497.56 217.457L497.271 214.141L495.601 213.979L491.09 211.747H488.4L483.16 213.047L476.548 219.069L469.503 222.702L464.703 224.472L460.191 225.404L458.082 225.712L454.361 225.873L452.111 227.275L448.043 231.211L444.459 232.662L442.061 232.974L436.671 231.895L432.16 231.734L421.681 228.251L417.809 229.556L413.454 230.806L410.021 233.346L403.121 235.573L399.694 237.498L394.601 237.967L391.021 237.806L385.929 235.573L382.501 233.502L382.061 231.275L380.401 230.806L378.59 229.043L375.309 230.445L373.654 229.824L370.221 231.744H367.824L365.861 230.962L360.621 231.744L355.973 231.436L352.253 232.364H349.85L340.851 231.793L335.021 232.413L330.811 233.712L321.213 238.797L317.78 239.876L315.534 239.095L313.429 236.555L312.404 234.015L312.253 232.774L310.729 224.051V221.662L311.91 217.198L312.942 215.586L313.38 216.06L314.259 219.069L316.364 222.859L315.773 225.243L316.5 226.332L317.53 225.243L319.343 225.561L319.049 223.171L319.494 221.769L320.373 221.931L321.1 224.472H322.13L322.721 223.534L323.454 223.381L325.26 223.23L325.851 222.761L326.584 220.221L326.29 218.761L322.711 218.448L321.539 217.828L321.393 216.9L322.76 213.11L324.084 216.9L326.769 217.521L329.171 220.06L330.353 219.127L333.341 219.44L333.78 218.971L333.493 217.521L330.353 216.578L329.171 215.327L331.28 210.868L333.849 208.025L334.879 205.178L332.921 194.529L333.513 191.844L338.751 188.991L343.839 187.378L348.493 179.13L348.78 177.205L349.074 173.737L347.263 171.812L346.823 170.205L350.25 163.251L351.129 159.782L351.28 159.152L352.311 158.209H353.683L356.959 160.75L357.853 160.594L357.999 160.12L355.45 156.641L355.601 154.56L357.414 153.94L358.293 152.539L358.883 152.226L359.469 154.15L361.72 154.771L362.311 155.401L361.871 161.101L364.42 159.651L365.299 159.49L366.623 160.12L369.763 159.031L372.901 161.732L373.19 157.95L372.599 154.468L374.85 151.621L371.129 147.518L370.983 146.575L371.861 145.646L380.24 141.544L382.204 138.384L383.722 138.697L384.161 139.947L385.191 139.483L388.912 139.947L390.719 139.634L391.012 138.707L388.17 134.09L387.882 130.462L386.559 128.552L384.45 127.609H381.021L380.582 126.359L381.613 125.27L384.01 124.181L385.972 121.948L388.37 122.26L388.961 121.948L389.112 121.327L390.142 118.319L389.991 116.707L387.589 120.346L384.312 120.648L383.58 121.586L382.99 122.206L377.16 125.372L375.793 124.752L372.789 121.26L372.941 116.326L372.35 115.237L371.759 115.388L371.174 120.009L371.32 121.621L371.613 124.322L370.441 124.161L369.41 127.482L368.244 129.24L364.963 127.321H363.79L363.503 128.248L364.093 128.722L366.051 129.811L366.339 131.053L365.9 131.981L364.581 130.52L363.703 130.374L363.111 131.463L363.551 132.552L363.111 133.485L360.861 134.262L360.124 133.744L359.83 132.493L358.311 132.801L356.794 130.574L355.611 132.181L356.49 134.413L356.339 135.043L355.46 134.735L353.209 135.663L348.703 135.043L348.551 133.285L349.733 128.03L349.44 126.109L348.561 124.81L347.834 123.559L345.583 121.176V122.788L347.54 127.092V129.631L346.374 133.421L347.223 136.465L346.633 137.554L344.669 133.451L342.711 132.152L342.424 132.934L344.23 135.312L343.351 135.942L344.381 137.554L341.1 138.794L337.379 142.277L334.981 142.897L331.403 146.058L325.87 148.759L314.65 156.07L312.99 156.231L311.32 155.288L308.629 152.749L306.969 149.887L306.823 149.315L305.793 144.236L303.244 142.624L302.95 141.534L303.83 139.776L303.982 138.164L305.499 138.946L306.242 138.315L306.833 136.245L304.43 127.99L304.143 121.821L304.733 119.12L307.55 111.657L308.429 109.264L310.68 94.6789L313.674 83.5866L313.083 80.5769L313.962 77.1046L316.223 69.9348L316.662 68.6844L320.089 62.6612L324.303 57.1082L326.994 54.4073L329.981 52.1754L336.891 48.8531L340.763 48.3842H344.039L349.43 49.0144L349.87 49.1657L353.941 50.2648C386.784 71.6078 396.11 31.9702 399.801 0.500159H0.500159V2453.28H772.5V2400.26L767.587 2400.85Z" stroke="#538ECB" stroke-linejoin="round"/>
</svg>
