<svg width="308" height="497" viewBox="0 0 308 497" fill="none" xmlns="http://www.w3.org/2000/svg">
<path d="M253.988 6.61856L254.867 4.6986L258.447 3.92686L262.321 3.16012L264.279 2.68608L267.122 2.52973L271.635 4.44969L273.154 8.38218L272.714 12.4622L272.275 16.2446L271.244 19.249V22.7174L273.936 24.9413L276.773 26.5536L281.428 28.4635L284.418 29.0939L287.109 29.4016L288.779 29.7143L290.737 36.3397H289.707L291.031 47.4155L289.858 56.5824L288.188 67.3505V80.6451L288.036 97.4181L286.381 109.423L286.82 115.427L284.72 121.74L282.605 128.727L280.358 131.879L276.485 135.66L274.375 137.884L271.684 142.173L270.311 148.031L271.343 153.103L272.373 157.197L274.033 161.648L276.285 165.737L278.097 170.194L280.495 175.577L281.087 179.36L280.206 184.743L277.667 189.815L275.406 192.976L272.855 199.601L271.195 203.076L268.792 206.696L268.944 211.919L270.262 218.916L273.106 222.687L276.534 229L279.816 233.612L282.366 235.996L284.915 240.085L286.727 243.868L287.91 245.929L287.177 247.694L285.507 247.85L282.376 248.163L279.386 249.462L278.653 251.226L278.947 253.756L281.198 258.208L282.376 259.6L282.815 262.599L281.638 265.141L276.983 267.212L269.632 270.217L266.644 276.519L263.649 283.663L262.13 294.891L260.812 313.574L261.988 318.333L265.134 325.33L267.533 328.491L271.894 331.643L276.104 334.647L280.178 338.581L284.828 342.362L288.7 345.201L293.502 349.505L298.885 353.59L300.691 356.59L298.592 358.812L296.922 360.724L293.791 363.264L292.12 365.794L289.868 369.108L289.722 371.487L292.271 374.331L295.7 375.943L298.695 376.564L302.123 377.194L304.673 381.957L302.275 385.729L298.992 388.27L293.903 389.872L288.369 393.654L281.946 395.105L272.191 397.177L268.323 396.864L264.743 397.177L260.669 401.257L259.941 407.882L258.13 410.725L254.847 409.484L251.419 408.39L245.446 408.243L242.754 409.533L240.356 411.135L244.224 414.908L246.915 416.148L252.449 419.31L255.878 420.551L261.71 422.784L260.831 429.404L260.543 432.257L263.531 437.022L268.622 443.955L270.146 447.418L268.03 449.798L264.899 452.49L263.092 453.731L260.098 454.513L256.23 458.134L254.417 462.066L255.936 466.992L256.23 469.209L258.188 473.974L258.042 478.737L257.012 482.211V483.139L253.73 483.77L246.525 484.703L242.802 486.92L236.824 487.854L232.951 488.63L229.821 490.082L223.837 486.769L219.188 482.842L216.638 483.608L212.916 482.01L209.634 479.318L206.205 477.393H202.483L199.641 477.706L198.913 476.465L200.281 474.394L202.092 471.701L204.202 467.612L205.385 464.919L203.572 460.987L200.583 459.746L193.97 460.528L188.138 460.366L182.897 460.205L174.374 463.204L172.714 467.138L170.462 471.75L168.791 473.044L167.472 471.119L164.771 466.83L160.259 464.137L158.148 464.768L157.269 466.009L155.95 469.942L154.768 473.876L153.889 474.965L152.516 477.344L152.229 479.254L145.326 480.349L142.044 480.036L138.913 480.496L132.794 478.898L130.982 479.206L123.631 479.987L120.636 480.446L115.396 481.228L112.265 482.68L106.433 483.301L100.899 484.082L96.5427 486.769L94.8822 488.684L87.9651 494.079L83.9062 492.154L82.3871 487.082L81.503 482.632L80.1365 481.028L76.8542 486.1L73.4244 489.261L72.0526 488.64L70.2409 487.033L67.9939 483.882L66.9624 481.956L67.69 477.198L67.1 470.563L66.5085 466.79L64.1103 463.317L61.1219 460.776L55.8752 458.245L49.1156 456.633L43.7227 454.869L39.3613 452.803L35.0001 449.958L33.6322 447.887L36.9094 443.275L39.6014 439.18L39.1614 434.261L36.763 432.189L34.8 428.715L38.6725 425.564L42.3948 422.402L44.7932 421.162L48.2267 417.688L52.2955 413.744L57.0969 407.272L60.2378 402.981L62.9286 397.905L65.6295 393.816L68.9117 389.208L70.7235 386.98L74.446 382.055L77.7232 378.122L79.5349 373.671L80.1264 369.889L80.2777 365.594L79.6862 360.524L81.6456 358.451L84.1952 354.367L86.007 351.518L86.2945 347.747L84.4878 343.959L80.7653 342.039L74.4946 339.509L70.6209 338.581L68.6629 335.737L65.3807 332.884L62.2396 327.812L58.1759 326.879H54.8986L52.3441 329.101L51.1675 331.022L49.2032 336.098L47.6839 338.791L44.4016 341.791L40.0404 342.719L34.6538 340.809L31.3715 339.358L27.9366 338.746L21.5197 338.59L18.9652 340.511L14.7551 342.421L10.8864 342.113L7.75544 339.88L5.50347 337.036L2.66141 329.424V324.969L2.51015 318.969L4.61956 311.351L6.43134 305.508L7.46162 301.214L9.42603 293.45L12.4145 289.16L13.7824 284.695L14.3738 277.713L17.0746 272.328L20.3568 267.715L25.007 263.104L29.8086 259.629L34.9026 256.786L38.1848 252.697L40.1428 248.763L41.0219 243.53L43.4251 239.446L41.0219 233.754L38.0336 227.91V225.218L36.5143 220.616L35.3414 217.611L33.3784 212.217L32.2017 209.686L31.3227 205.235L29.3583 200.633L26.2274 196.181L23.9767 192.555L24.8608 186.864L29.0707 181.787L33.1296 179.247L37.6421 173.706L41.3645 170.081L43.7627 167.852L46.4535 164.389L49.1445 161.228L50.9575 155.844L50.366 150.151L52.0366 145.076L54.1371 138.763L54.2886 131.62L58.1559 126.396L62.8111 122.303L68.0527 115.677L74.0358 110.297L75.6963 108.383L83.4862 104.092L87.8488 102.329L94.462 97.4081L97.4504 93.9447L106.902 91.8722L111.112 91.5745L114.394 95.1955L116.495 98.5176L116.934 101.517L122.917 102.968L126.199 106.755L132.32 107.683L137.711 109.906L146.533 112.907L150.748 112.125L153.738 109.286L156.58 105.504L160.449 96.495L161.973 89.7133L161.381 85.6282L162.26 79.9359H165.25L167.502 69.7883L171.863 67.4193L178.135 64.7163L183.239 62.4937L189.071 60.8964L194.903 60.5837L198.77 60.276L203.284 60.5837L205.682 59.9533L211.368 59.3329L216.316 58.7125L222.299 55.8583L227.833 53.3179L232.341 50.7776L236.214 47.9333L238.612 43.8445L241.313 36.2272L242.485 31.3166L243.804 25.7718L246.207 21.3203L250.715 17.5392L252.967 14.0745L253.997 10.142V8.68987L253.985 6.61856H253.988Z" fill="#E9A0A0" stroke="white" stroke-width="5"/>
</svg>
